<svg width="228" height="70" viewBox="0 0 228 70" fill="none" xmlns="http://www.w3.org/2000/svg">
<path d="M32.8351 57.8754C32.1464 57.495 32.1464 56.505 32.8351 56.1246L47.0166 48.2929C47.6831 47.9249 48.5 48.407 48.5 49.1683V64.8317C48.5 65.593 47.6831 66.0751 47.0166 65.7071L32.8351 57.8754Z" fill="url(#paint0_linear_12_7)"/>
<path d="M17.6649 56.1246C18.3536 56.505 18.3536 57.495 17.6649 57.8754L3.48343 65.7071C2.81694 66.0751 2 65.593 2 64.8317L2 49.1683C2 48.407 2.81694 47.9249 3.48343 48.2929L17.6649 56.1246Z" fill="url(#paint1_linear_12_7)"/>
<path d="M24.6645 57.4229C25.014 57.1704 25.486 57.1704 25.8355 57.4229L33.1275 62.6893C33.6802 63.0885 33.6802 63.9115 33.1275 64.3107L25.8355 69.5771C25.486 69.8296 25.014 69.8296 24.6645 69.5771L17.3725 64.3107C16.8198 63.9115 16.8198 63.0885 17.3725 62.6893L24.6645 57.4229Z" fill="url(#paint2_linear_12_7)"/>
<path d="M25.0269 26.6071L25.0254 26.6081L25.0263 26.6099L25.0279 26.609L25.0269 26.6071Z" fill="#808080"/>
<path d="M25.0279 26.6076L25.0269 26.6071L25.0266 26.6086L25.0279 26.6076Z" fill="#808080"/>
<path d="M25.0269 26.6071L42.7601 20.4813L30.8342 18.1486L25.0269 26.6071Z" fill="#DDCFC6"/>
<path d="M25.0279 26.6076L25.0266 26.6086L25.0279 26.609L25.0279 26.6076Z" fill="#808080"/>
<path d="M34.4828 29.7943L42.7601 20.4826L25.0279 26.609L34.4828 29.7943Z" fill="#D0C4BC"/>
<path d="M15.5943 29.866L14.1063 42.5101L25.0245 26.6094L15.5943 29.866Z" fill="#CAC6BA"/>
<path d="M25.0245 26.6094L14.1063 42.5101L25.063 37.0361L25.0279 26.609L25.0245 26.6094Z" fill="#C8BCB4"/>
<path d="M30.8342 18.1499L24.9601 7L25.0269 26.6071L30.8342 18.1499Z" fill="#DED9CB"/>
<path d="M25.0279 26.609L36.0542 42.4284L34.4841 29.7943L25.0279 26.609Z" fill="#C5B8AF"/>
<path d="M25.0279 26.609L25.063 37.0361L36.0542 42.4284L25.0279 26.609Z" fill="#DDCFC6"/>
<path d="M25.0269 26.6071L24.9601 7L19.1603 18.1927L25.0269 26.6071Z" fill="#CAC6BA"/>
<path d="M19.1603 18.1927L7.25 20.6152L25.0269 26.6071L19.1603 18.1927Z" fill="#F2EFE6"/>
<path d="M25.0269 26.6071L7.25 20.6152L15.5934 29.8651L25.0236 26.6085L25.0269 26.6071Z" fill="#D7D6D4"/>
<path d="M25 2C25.6209 2 26.2318 2.16446 26.7715 2.47852L26.7793 2.4834L46.2158 13.6807V13.6816C46.7551 13.9956 47.2057 14.4477 47.5195 14.9951C47.7942 15.4742 47.9557 16.0107 47.9922 16.5625L48 16.7998V39.2021C47.999 39.8361 47.8331 40.4579 47.5195 41.0049C47.2057 41.5523 46.7551 42.0044 46.2158 42.3184L26.7793 53.5166L26.7715 53.5215C26.2318 53.8355 25.6208 54 25 54C24.3791 54 23.7682 53.8355 23.2285 53.5215L23.2207 53.5166L3.7832 42.3184H3.78418C3.24487 42.0044 2.79433 41.5523 2.48047 41.0049C2.20581 40.5258 2.04434 39.9893 2.00781 39.4375L2 39.2002V16.7998C2.00065 16.1652 2.16659 15.5426 2.48047 14.9951C2.79427 14.4478 3.24403 13.9946 3.7832 13.6807L23.2207 2.4834L23.2285 2.47852C23.7682 2.16446 24.3791 2 25 2Z" stroke="url(#paint3_linear_12_7)" stroke-width="4" stroke-linecap="round" stroke-linejoin="round"/>
<path d="M63.844 17.076C63.844 15.948 64.264 15.072 65.104 14.448C65.944 13.8 67.132 13.476 68.668 13.476V35.724C68.668 36.876 68.248 37.764 67.408 38.388C66.568 39.012 65.38 39.324 63.844 39.324V17.076ZM81.3406 39.324C79.7806 39.324 78.4006 39.048 77.2006 38.496C76.0006 37.92 75.0646 37.128 74.3926 36.12C73.7206 35.112 73.3846 33.972 73.3846 32.7V27.66C73.3846 26.292 73.7206 25.08 74.3926 24.024C75.0646 22.968 76.0006 22.152 77.2006 21.576C78.4006 20.976 79.7686 20.676 81.3046 20.676C82.7446 20.676 84.0166 20.88 85.1206 21.288C86.2486 21.696 87.1246 22.272 87.7486 23.016C88.3726 23.736 88.6846 24.576 88.6846 25.536C88.6846 26.28 88.3966 26.88 87.8206 27.336C87.2446 27.792 86.4886 28.02 85.5526 28.02C85.2886 28.02 85.0966 28.008 84.9766 27.984C84.9766 26.952 84.6406 26.124 83.9686 25.5C83.3206 24.876 82.4686 24.564 81.4126 24.564C80.3566 24.564 79.4926 24.864 78.8206 25.464C78.1726 26.064 77.8486 26.856 77.8486 27.84V32.376C77.8486 33.288 78.1846 34.032 78.8566 34.608C79.5286 35.16 80.3926 35.436 81.4486 35.436C82.5046 35.436 83.3686 35.124 84.0406 34.5C84.7126 33.852 85.0486 33.036 85.0486 32.052C85.1926 32.028 85.3966 32.016 85.6606 32.016C86.5966 32.016 87.3526 32.232 87.9286 32.664C88.5046 33.096 88.7926 33.684 88.7926 34.428C88.7926 35.388 88.4686 36.24 87.8206 36.984C87.1966 37.704 86.3206 38.28 85.1926 38.712C84.0646 39.12 82.7806 39.324 81.3406 39.324ZM92.2334 16.932C92.2334 15.828 92.6174 14.976 93.3854 14.376C94.1534 13.776 95.2574 13.476 96.6974 13.476V22.836C96.3854 23.172 96.0974 23.556 95.8334 23.988L96.0494 24.132C97.7054 21.828 99.8174 20.676 102.385 20.676C103.609 20.676 104.689 20.952 105.625 21.504C106.561 22.056 107.281 22.812 107.785 23.772C108.313 24.732 108.577 25.812 108.577 27.012V36.588C108.577 37.548 108.205 38.244 107.461 38.676C106.717 39.108 105.589 39.324 104.077 39.324V27.66C104.077 26.748 103.801 26.004 103.249 25.428C102.721 24.852 101.941 24.564 100.909 24.564C99.6854 24.564 98.6774 24.948 97.8854 25.716C97.0934 26.46 96.6974 27.396 96.6974 28.524V36.588C96.6974 37.548 96.3254 38.244 95.5814 38.676C94.8374 39.108 93.7214 39.324 92.2334 39.324V16.932ZM124.141 39C123.493 39 122.929 38.784 122.449 38.352C121.969 37.92 121.729 37.404 121.729 36.804V15.996C121.729 15.396 121.957 14.88 122.413 14.448C122.893 14.016 123.469 13.8 124.141 13.8H133.825C136.129 13.8 137.965 14.448 139.333 15.744C140.725 17.016 141.421 18.732 141.421 20.892C141.421 21.924 141.145 22.908 140.593 23.844C140.041 24.756 139.309 25.464 138.397 25.968V26.076C139.645 26.508 140.629 27.216 141.349 28.2C142.093 29.184 142.465 30.312 142.465 31.584C142.465 33.024 142.129 34.308 141.457 35.436C140.785 36.564 139.849 37.44 138.649 38.064C137.449 38.688 136.081 39 134.545 39H124.141ZM133.753 24.384C134.545 24.384 135.217 24.06 135.769 23.412C136.345 22.764 136.633 21.984 136.633 21.072C136.633 20.088 136.369 19.308 135.841 18.732C135.337 18.156 134.641 17.868 133.753 17.868H126.409V24.384H133.753ZM134.473 34.932C135.457 34.932 136.237 34.644 136.813 34.068C137.389 33.468 137.677 32.652 137.677 31.62C137.677 30.612 137.389 29.832 136.813 29.28C136.261 28.704 135.481 28.416 134.473 28.416H126.409V34.932H134.473ZM148.94 18.984C148.076 18.984 147.356 18.732 146.78 18.228C146.228 17.7 145.952 17.028 145.952 16.212C145.952 15.42 146.228 14.772 146.78 14.268C147.356 13.74 148.076 13.476 148.94 13.476C149.804 13.476 150.512 13.74 151.064 14.268C151.64 14.772 151.928 15.42 151.928 16.212C151.928 17.028 151.64 17.7 151.064 18.228C150.512 18.732 149.804 18.984 148.94 18.984ZM146.672 23.412C146.672 22.428 147.044 21.732 147.788 21.324C148.532 20.892 149.66 20.676 151.172 20.676V36.588C151.172 37.548 150.8 38.244 150.056 38.676C149.312 39.108 148.184 39.324 146.672 39.324V23.412ZM156.183 24.132C156.183 23.028 156.531 22.176 157.227 21.576C157.947 20.976 159.027 20.676 160.467 20.676V22.836C160.179 23.172 159.891 23.556 159.603 23.988L159.819 24.132C160.539 23.052 161.463 22.212 162.591 21.612C163.719 20.988 164.967 20.676 166.335 20.676C167.559 20.676 168.639 20.952 169.575 21.504C170.511 22.056 171.231 22.812 171.735 23.772C172.263 24.732 172.527 25.812 172.527 27.012V36.588C172.527 37.548 172.155 38.244 171.411 38.676C170.667 39.108 169.539 39.324 168.027 39.324V27.66C168.027 26.748 167.751 26.004 167.199 25.428C166.671 24.852 165.891 24.564 164.859 24.564C163.635 24.564 162.627 24.948 161.835 25.716C161.043 26.46 160.647 27.396 160.647 28.524V36.588C160.647 37.548 160.287 38.244 159.567 38.676C158.847 39.108 157.719 39.324 156.183 39.324V24.132ZM188.231 39C187.559 39 186.983 38.796 186.503 38.388C186.047 37.956 185.819 37.428 185.819 36.804V15.996C185.819 15.372 186.047 14.856 186.503 14.448C186.959 14.016 187.535 13.8 188.231 13.8H196.223C198.359 13.8 200.243 14.208 201.875 15.024C203.531 15.84 204.803 16.992 205.691 18.48C206.603 19.944 207.059 21.624 207.059 23.52V29.208C207.059 31.104 206.603 32.796 205.691 34.284C204.779 35.772 203.495 36.936 201.839 37.776C200.207 38.592 198.335 39 196.223 39H188.231ZM195.863 34.86C197.951 34.86 199.535 34.392 200.615 33.456C201.695 32.496 202.235 31.092 202.235 29.244V23.448C202.235 21.648 201.695 20.28 200.615 19.344C199.535 18.408 197.951 17.94 195.863 17.94H190.643V34.86H195.863ZM216.44 39.324C215.216 39.324 214.088 39.084 213.056 38.604C212.048 38.124 211.232 37.44 210.608 36.552C210.008 35.64 209.708 34.56 209.708 33.312C209.708 32.064 210.032 30.984 210.68 30.072C211.328 29.136 212.204 28.428 213.308 27.948C214.436 27.444 215.672 27.192 217.016 27.192C218.12 27.192 219.104 27.372 219.968 27.732C220.856 28.068 221.672 28.584 222.416 29.28L222.596 29.1C222.38 28.884 222.008 28.56 221.48 28.128V27.408C221.48 26.424 221.132 25.644 220.436 25.068C219.74 24.492 218.768 24.204 217.52 24.204C215.288 24.204 213.644 25.02 212.588 26.652C212.06 26.484 211.616 26.22 211.256 25.86C210.896 25.476 210.716 25.068 210.716 24.636C210.716 23.916 211.04 23.256 211.688 22.656C212.336 22.056 213.212 21.576 214.316 21.216C215.42 20.856 216.62 20.676 217.916 20.676C220.46 20.676 222.428 21.276 223.82 22.476C225.212 23.652 225.908 25.26 225.908 27.3V36.3C225.908 37.356 225.572 38.124 224.9 38.604C224.228 39.084 223.172 39.324 221.732 39.324V37.848C222.14 37.44 222.416 37.14 222.56 36.948L222.416 36.768C221.624 37.608 220.772 38.244 219.86 38.676C218.972 39.108 217.832 39.324 216.44 39.324ZM217.592 36.048C218.84 36.048 219.812 35.808 220.508 35.328C221.204 34.848 221.552 34.164 221.552 33.276C221.552 32.412 221.192 31.728 220.472 31.224C219.776 30.72 218.828 30.468 217.628 30.468C216.524 30.468 215.648 30.72 215 31.224C214.376 31.704 214.064 32.388 214.064 33.276C214.064 34.188 214.376 34.884 215 35.364C215.624 35.82 216.488 36.048 217.592 36.048Z" fill="#F2EFE6"/>
<defs>
<linearGradient id="paint0_linear_12_7" x1="25.25" y1="7" x2="25.25" y2="56.1216" gradientUnits="userSpaceOnUse">
<stop stop-color="#D5D3CD"/>
<stop offset="1" stop-color="#C0B1A7"/>
</linearGradient>
<linearGradient id="paint1_linear_12_7" x1="13.625" y1="31.5608" x2="48.0874" y2="44.9066" gradientUnits="userSpaceOnUse">
<stop stop-color="#E4E2DB"/>
<stop offset="1" stop-color="#C9BEB7"/>
</linearGradient>
<linearGradient id="paint2_linear_12_7" x1="39.4583" y1="52.8678" x2="10.6659" y2="41.9934" gradientUnits="userSpaceOnUse">
<stop stop-color="#C9BEB7"/>
<stop offset="1" stop-color="#D5D3CD"/>
</linearGradient>
<linearGradient id="paint3_linear_12_7" x1="12.5" y1="7" x2="38.5" y2="49.5" gradientUnits="userSpaceOnUse">
<stop stop-color="#F2EFE6"/>
<stop offset="1" stop-color="#DDCFC6"/>
</linearGradient>
</defs>
</svg>
